<svg xmlns="http://www.w3.org/2000/svg" xmlns:xlink="http://www.w3.org/1999/xlink" width="300" zoomAndPan="magnify" viewBox="0 0 224.87999 187.499995" height="250" preserveAspectRatio="xMidYMid meet" version="1.0"><path fill="#8b8b8b" d="M 167.226562 152.066406 C 173.175781 152.277344 178.546875 153.085938 182.125 155.738281 C 182.617188 156.097656 182.894531 156.6875 182.851562 157.296875 C 182.292969 165.234375 177.949219 168.476562 171.710938 169.371094 C 169.425781 169.078125 168.640625 167.90625 169.847656 165.5625 C 166.171875 165.6875 165.085938 163.75 166.640625 159.707031 C 164.523438 160.164062 163.40625 159.636719 163.726562 157.699219 C 163.859375 156.90625 164.214844 156.167969 164.710938 155.535156 C 165.265625 154.832031 165.65625 154.042969 165.855469 153.144531 C 165.996094 152.5 166.570312 152.042969 167.226562 152.066406 Z M 167.226562 152.066406 " fill-opacity="1" fill-rule="nonzero"/><path fill="#8b8b8b" d="M 178.8125 112.285156 C 180.621094 115.089844 181.550781 117.898438 181.558594 120.703125 C 181.558594 120.703125 164.984375 127.125 164.984375 127.125 C 163.335938 124.394531 163.53125 121.746094 166.027344 119.207031 C 166.027344 119.207031 178.8125 112.285156 178.8125 112.285156 Z M 178.8125 112.285156 " fill-opacity="1" fill-rule="nonzero"/><path fill="#d3d3d3" d="M 180.796875 112.027344 C 180.855469 112.265625 180.75 112.515625 180.539062 112.640625 C 180.539062 112.640625 177.886719 114.207031 177.886719 114.207031 C 177.886719 114.207031 163.714844 122.589844 163.714844 122.589844 C 156.28125 108.515625 153.09375 95.28125 162.601562 90.40625 C 163.292969 90.050781 164.046875 89.738281 164.875 89.476562 C 173.765625 90 177.914062 99.777344 180.796875 112.027344 Z M 180.796875 112.027344 " fill-opacity="1" fill-rule="nonzero"/><path fill="#ffffff" d="M 180.515625 112.652344 C 180.515625 112.652344 177.886719 114.207031 177.886719 114.207031 C 175.628906 102.945312 170.921875 94.554688 162.601562 90.40625 C 163.292969 90.050781 164.046875 89.738281 164.875 89.476562 C 173.757812 90 177.910156 99.765625 180.792969 112.003906 C 180.851562 112.257812 180.738281 112.519531 180.515625 112.652344 Z M 180.515625 112.652344 " fill-opacity="1" fill-rule="nonzero"/><path fill="#d3d3d3" d="M 187.863281 147.390625 C 187.71875 148.328125 187.007812 149.074219 186.085938 149.304688 C 184.429688 149.714844 182.734375 150.007812 181.003906 150.1875 C 176.828125 150.628906 172.433594 150.414062 167.847656 149.613281 C 167.496094 149.550781 167.175781 149.359375 166.960938 149.074219 C 162.378906 143.023438 159.792969 135.910156 163.160156 125.644531 C 163.792969 126.460938 171.402344 123.90625 176.824219 121.550781 C 179.273438 120.488281 181.273438 119.464844 181.984375 118.8125 C 182.164062 118.644531 182.453125 118.6875 182.570312 118.902344 C 188.359375 129.492188 189.214844 138.742188 187.863281 147.390625 Z M 187.863281 147.390625 " fill-opacity="1" fill-rule="nonzero"/><path fill="#ffffff" d="M 186.085938 149.304688 C 184.429688 149.714844 182.734375 150.007812 181 150.1875 C 182.324219 139.921875 181.4375 130.238281 176.824219 121.550781 C 179.277344 120.484375 181.28125 119.457031 181.988281 118.804688 C 182.167969 118.640625 182.453125 118.6875 182.566406 118.898438 C 188.359375 129.488281 189.214844 138.738281 187.863281 147.390625 C 187.71875 148.328125 187.007812 149.074219 186.085938 149.304688 Z M 186.085938 149.304688 " fill-opacity="1" fill-rule="nonzero"/><path fill="#d3d3d3" d="M 140.261719 161.285156 C 140.261719 161.285156 140.257812 161.285156 140.257812 161.285156 C 139.433594 161.457031 138.585938 161.609375 137.714844 161.738281 C 135.449219 161.878906 133.308594 161.847656 131.289062 161.660156 C 106.347656 159.335938 99.488281 132.683594 97.085938 100.027344 C 97.085938 100.027344 122.90625 96.007812 122.90625 96.007812 C 122.90625 96.007812 144.652344 92.621094 144.652344 92.621094 C 144.652344 92.621094 144.664062 92.621094 144.664062 92.621094 C 144.664062 92.621094 164.933594 89.464844 164.933594 89.464844 C 170.949219 130.023438 166.449219 155.878906 140.261719 161.285156 Z M 140.261719 161.285156 " fill-opacity="1" fill-rule="nonzero"/><path fill="#ffffff" d="M 140.261719 161.285156 C 152.582031 157.75 155.566406 111.78125 144.652344 92.621094 C 144.652344 92.621094 144.664062 92.621094 144.664062 92.621094 C 144.664062 92.621094 164.933594 89.464844 164.933594 89.464844 C 170.949219 130.023438 166.449219 155.878906 140.261719 161.285156 Z M 140.261719 161.285156 " fill-opacity="1" fill-rule="nonzero"/><path fill="#8b8b8b" d="M 153.605469 104.441406 C 153.605469 104.441406 159.878906 103.175781 159.878906 103.175781 C 160.671875 103.015625 161.414062 103.621094 161.414062 104.429688 C 161.414062 104.429688 161.414062 118.445312 161.414062 118.445312 C 161.414062 119.007812 161.046875 119.507812 160.507812 119.667969 C 158.4375 120.289062 156.289062 120.496094 154.089844 120.378906 C 153.414062 120.34375 152.878906 119.800781 152.863281 119.128906 C 152.863281 119.128906 152.578125 105.722656 152.578125 105.722656 C 152.566406 105.105469 153 104.566406 153.605469 104.441406 Z M 153.605469 104.441406 " fill-opacity="1" fill-rule="nonzero"/><path fill="#007296" d="M 153.917969 106.699219 C 153.917969 106.699219 154.054688 108.480469 154.054688 108.480469 C 154.078125 108.769531 154.34375 108.976562 154.625 108.925781 C 154.625 108.925781 159.554688 108.050781 159.554688 108.050781 C 159.789062 108.011719 159.957031 107.808594 159.957031 107.570312 C 159.957031 107.570312 159.957031 105.550781 159.957031 105.550781 C 159.957031 105.242188 159.667969 105.007812 159.363281 105.074219 C 159.363281 105.074219 154.300781 106.183594 154.300781 106.183594 C 154.0625 106.238281 153.902344 106.457031 153.917969 106.699219 Z M 153.917969 106.699219 " fill-opacity="1" fill-rule="nonzero"/><path fill="#007296" d="M 154.179688 111.078125 C 154.179688 111.078125 154.179688 112.832031 154.179688 112.832031 C 154.179688 113.113281 154.410156 113.332031 154.6875 113.320312 C 154.6875 113.320312 159.515625 113.113281 159.515625 113.113281 C 159.765625 113.101562 159.96875 112.902344 159.984375 112.652344 C 159.984375 112.652344 160.128906 110.070312 160.128906 110.070312 C 160.148438 109.75 159.855469 109.5 159.542969 109.566406 C 159.542969 109.566406 154.566406 110.601562 154.566406 110.601562 C 154.339844 110.648438 154.179688 110.847656 154.179688 111.078125 Z M 154.179688 111.078125 " fill-opacity="1" fill-rule="nonzero"/><path fill="#007296" d="M 154.179688 115.90625 C 154.179688 115.90625 154.179688 117.9375 154.179688 117.9375 C 154.179688 118.21875 154.417969 118.441406 154.699219 118.425781 C 154.699219 118.425781 159.707031 118.113281 159.707031 118.113281 C 159.964844 118.097656 160.164062 117.882812 160.164062 117.625 C 160.164062 117.625 160.164062 115.421875 160.164062 115.421875 C 160.164062 115.132812 159.917969 114.90625 159.628906 114.933594 C 159.628906 114.933594 154.621094 115.421875 154.621094 115.421875 C 154.371094 115.445312 154.179688 115.65625 154.179688 115.90625 Z M 154.179688 115.90625 " fill-opacity="1" fill-rule="nonzero"/><path fill="#8b8b8b" d="M 98.53125 102.019531 C 109.085938 106.945312 156.152344 99.449219 164.289062 91.59375 C 165.5625 90.367188 165.007812 88.207031 163.3125 87.703125 C 152.210938 84.398438 107.839844 90.117188 98.058594 97.6875 C 96.554688 98.851562 96.804688 101.214844 98.53125 102.019531 Z M 98.53125 102.019531 " fill-opacity="1" fill-rule="nonzero"/><path fill="#d3d3d3" d="M 150.054688 171.355469 C 149.914062 171.597656 149.710938 171.796875 149.46875 171.933594 C 146.785156 173.4375 144.085938 174.546875 141.363281 175.261719 C 135.21875 176.878906 128.984375 176.488281 122.660156 174.152344 C 122.355469 174.039062 122.09375 173.828125 121.910156 173.558594 C 120.925781 172.078125 120.5625 170.570312 120.789062 169.039062 C 120.917969 168.179688 121.726562 167.597656 122.582031 167.742188 C 129.191406 168.839844 135.691406 168.695312 142.070312 167.175781 C 144.332031 166.640625 146.578125 165.925781 148.8125 165.035156 C 149.738281 164.667969 150.777344 165.265625 150.917969 166.25 C 151.191406 168.125 150.945312 169.839844 150.054688 171.355469 Z M 150.054688 171.355469 " fill-opacity="1" fill-rule="nonzero"/><path fill="#ffffff" d="M 150.054688 171.355469 C 149.914062 171.597656 149.710938 171.796875 149.46875 171.933594 C 146.785156 173.4375 144.085938 174.546875 141.363281 175.261719 C 143.953125 172.925781 144.476562 170.273438 142.070312 167.175781 C 144.332031 166.640625 146.578125 165.925781 148.8125 165.035156 C 149.738281 164.667969 150.777344 165.265625 150.917969 166.25 C 151.191406 168.125 150.945312 169.839844 150.054688 171.355469 Z M 150.054688 171.355469 " fill-opacity="1" fill-rule="nonzero"/><path fill="#d3d3d3" d="M 147.695312 180.351562 C 147.644531 180.679688 147.5625 181.011719 147.449219 181.34375 C 147.132812 182.28125 146.402344 183.027344 145.480469 183.386719 C 144.195312 183.890625 142.886719 184.324219 141.550781 184.695312 C 137.90625 185.707031 134.078125 186.230469 130.074219 186.289062 C 128.6875 186.308594 127.367188 185.671875 126.539062 184.5625 C 126.109375 183.988281 125.820312 183.4375 125.6875 182.902344 C 125.375 181.671875 126.300781 180.46875 127.570312 180.425781 C 132.648438 180.257812 137.480469 179.800781 141.96875 178.921875 C 143.097656 178.699219 144.203125 178.453125 145.285156 178.175781 C 146.636719 177.828125 147.898438 178.972656 147.695312 180.351562 Z M 147.695312 180.351562 " fill-opacity="1" fill-rule="nonzero"/><path fill="#ffffff" d="M 147.695312 180.351562 C 147.644531 180.679688 147.5625 181.011719 147.449219 181.34375 C 147.132812 182.28125 146.402344 183.027344 145.480469 183.386719 C 144.195312 183.890625 142.886719 184.324219 141.550781 184.695312 C 142.550781 182.984375 142.796875 181.085938 141.96875 178.921875 C 143.097656 178.699219 144.203125 178.453125 145.285156 178.175781 C 146.636719 177.828125 147.898438 178.972656 147.695312 180.351562 Z M 147.695312 180.351562 " fill-opacity="1" fill-rule="nonzero"/><path fill="#d3d3d3" d="M 136.09375 33.890625 C 136.09375 33.890625 131.820312 34.710938 131.820312 34.710938 C 131.820312 34.710938 121.375 36.71875 121.375 36.71875 C 121.425781 34.144531 121.105469 31.425781 128.234375 30.230469 C 128.484375 30.175781 128.726562 30.125 128.96875 30.082031 C 133.105469 29.324219 135.6875 30.371094 136.09375 33.890625 Z M 136.09375 33.890625 " fill-opacity="1" fill-rule="nonzero"/><path fill="#ffffff" d="M 131.425781 34.808594 C 131.992188 31.941406 131.128906 30.570312 128.96875 30.082031 C 133.105469 29.324219 135.6875 30.375 136.09375 33.890625 C 136.09375 33.890625 131.425781 34.808594 131.425781 34.808594 Z M 131.425781 34.808594 " fill-opacity="1" fill-rule="nonzero"/><path fill="#8b8b8b" d="M 125.679688 15.492188 C 126.566406 21.707031 126.617188 26.878906 125.679688 30.8125 C 125.679688 30.8125 131.542969 29.855469 131.542969 29.855469 C 128.574219 26.261719 127.464844 20.871094 126.925781 14.929688 C 126.925781 14.929688 125.679688 15.492188 125.679688 15.492188 Z M 125.679688 15.492188 " fill-opacity="1" fill-rule="nonzero"/><path fill="#007296" d="M 130.9375 14.515625 C 130.9375 17.085938 128.851562 19.171875 126.28125 19.171875 C 123.710938 19.171875 121.625 17.085938 121.625 14.515625 C 121.625 11.945312 123.710938 9.859375 126.28125 9.859375 C 128.851562 9.859375 130.9375 11.945312 130.9375 14.515625 Z M 130.9375 14.515625 " fill-opacity="1" fill-rule="nonzero"/><path fill="#003647" d="M 130.9375 14.515625 C 130.9375 17.085938 128.851562 19.171875 126.28125 19.171875 C 125.90625 19.171875 125.539062 19.128906 125.191406 19.042969 C 127.234375 18.554688 128.753906 16.710938 128.753906 14.515625 C 128.753906 12.320312 127.234375 10.480469 125.191406 9.988281 C 125.539062 9.902344 125.90625 9.859375 126.28125 9.859375 C 128.851562 9.859375 130.9375 11.945312 130.9375 14.515625 Z M 130.9375 14.515625 " fill-opacity="1" fill-rule="nonzero"/><path fill="#d3d3d3" d="M 162.9375 72.773438 C 158.972656 74.824219 154.902344 76.640625 150.726562 78.222656 C 150.726562 78.222656 150.726562 78.226562 150.726562 78.226562 C 141.574219 81.695312 131.910156 84.046875 121.738281 85.304688 C 116.871094 85.910156 111.890625 86.261719 106.796875 86.371094 C 105.410156 86.398438 104.195312 85.4375 103.898438 84.082031 C 99.949219 65.925781 97.8125 48.613281 112.898438 39.328125 C 116.628906 37.03125 121.414062 35.222656 127.484375 34.015625 C 128.878906 33.703125 130.234375 33.457031 131.550781 33.277344 C 151.140625 30.597656 162.25 42.613281 164.40625 70.148438 C 164.492188 71.238281 163.90625 72.273438 162.9375 72.773438 Z M 162.9375 72.773438 " fill-opacity="1" fill-rule="nonzero"/><path fill="#ffffff" d="M 162.9375 72.773438 C 158.972656 74.824219 155.566406 77.097656 143.707031 80.636719 C 145.875 65.570312 150.828125 37.71875 131.542969 33.28125 C 131.542969 33.28125 131.550781 33.277344 131.550781 33.277344 C 151.140625 30.597656 162.25 42.613281 164.40625 70.148438 C 164.492188 71.238281 163.90625 72.273438 162.9375 72.773438 Z M 162.9375 72.773438 " fill-opacity="1" fill-rule="nonzero"/><path fill="#8b8b8b" d="M 122.679688 44.859375 C 110.253906 50.863281 109.132812 60.765625 111.269531 71.601562 C 114.070312 79.585938 121.300781 78.015625 131.277344 72.316406 C 134.167969 70.667969 137.542969 70.042969 140.816406 70.625 C 151.597656 72.53125 160.417969 68.679688 156.007812 55.300781 C 152.425781 47.019531 145.605469 43.011719 136.132812 42.242188 C 131.625 41.875 127.183594 42.683594 122.679688 44.859375 Z M 122.679688 44.859375 " fill-opacity="1" fill-rule="nonzero"/><path fill="#007296" d="M 123.4375 59.066406 C 123.765625 61.199219 123.113281 63.070312 121.976562 63.242188 C 120.84375 63.417969 119.65625 61.828125 119.328125 59.695312 C 119.003906 57.5625 119.65625 55.691406 120.792969 55.515625 C 121.925781 55.34375 123.113281 56.929688 123.4375 59.066406 Z M 123.4375 59.066406 " fill-opacity="1" fill-rule="nonzero"/><path fill="#007296" d="M 145.652344 55.660156 C 145.980469 57.792969 145.324219 59.664062 144.191406 59.835938 C 143.054688 60.011719 141.871094 58.421875 141.542969 56.289062 C 141.214844 54.15625 141.871094 52.285156 143.007812 52.109375 C 144.140625 51.9375 145.328125 53.527344 145.652344 55.660156 Z M 145.652344 55.660156 " fill-opacity="1" fill-rule="nonzero"/><path fill="#007296" d="M 139.679688 61.40625 C 139.808594 63.078125 137.628906 66.144531 134.664062 66.375 C 131.703125 66.605469 129.078125 63.910156 128.949219 62.238281 C 128.820312 60.566406 131.296875 61.347656 134.257812 61.117188 C 137.222656 60.886719 139.546875 59.734375 139.679688 61.40625 Z M 139.679688 61.40625 " fill-opacity="1" fill-rule="nonzero"/><path fill="#007296" d="M 91.171875 30.941406 C 91.171875 30.941406 93.132812 15.25 93.132812 15.25 C 93.203125 14.707031 93.777344 14.378906 94.28125 14.605469 C 94.28125 14.605469 102.402344 18.238281 102.402344 18.238281 C 102.898438 18.460938 103.042969 19.09375 102.695312 19.511719 C 102.695312 19.511719 92.613281 31.570312 92.613281 31.570312 C 92.089844 32.195312 91.070312 31.753906 91.171875 30.941406 Z M 91.171875 30.941406 " fill-opacity="1" fill-rule="nonzero"/><path fill="#007296" d="M 66.851562 26.839844 C 66.851562 26.839844 57.511719 14.078125 57.511719 14.078125 C 57.1875 13.632812 57.382812 13 57.902344 12.820312 C 57.902344 12.820312 66.304688 9.890625 66.304688 9.890625 C 66.816406 9.710938 67.359375 10.074219 67.390625 10.613281 C 67.390625 10.613281 68.328125 26.304688 68.328125 26.304688 C 68.378906 27.121094 67.335938 27.496094 66.851562 26.839844 Z M 66.851562 26.839844 " fill-opacity="1" fill-rule="nonzero"/><path fill="#007296" d="M 54.070312 43.390625 C 54.070312 43.390625 38.261719 42.859375 38.261719 42.859375 C 37.714844 42.839844 37.339844 42.296875 37.515625 41.777344 C 37.515625 41.777344 40.398438 33.359375 40.398438 33.359375 C 40.574219 32.84375 41.191406 32.640625 41.640625 32.949219 C 41.640625 32.949219 54.5625 41.898438 54.5625 41.898438 C 55.234375 42.363281 54.882812 43.417969 54.070312 43.390625 Z M 54.070312 43.390625 " fill-opacity="1" fill-rule="nonzero"/><path fill="#007296" d="M 59.492188 68.207031 C 59.492188 68.207031 49.257812 80.261719 49.257812 80.261719 C 48.898438 80.679688 48.242188 80.636719 47.945312 80.171875 C 47.945312 80.171875 43.140625 72.683594 43.140625 72.683594 C 42.847656 72.226562 43.070312 71.617188 43.589844 71.460938 C 43.589844 71.460938 58.632812 66.894531 58.632812 66.894531 C 59.414062 66.65625 60.023438 67.585938 59.492188 68.207031 Z M 59.492188 68.207031 " fill-opacity="1" fill-rule="nonzero"/><path fill="#8b8b8b" d="M 94.761719 117.484375 C 95.457031 120.75 97.234375 122.742188 99.957031 123.617188 C 103.839844 123.007812 107.394531 121.929688 109.890625 119.324219 C 111.933594 116.394531 111.527344 113.355469 109.332031 110.234375 C 109.332031 110.234375 94.761719 117.484375 94.761719 117.484375 Z M 94.761719 117.484375 " fill-opacity="1" fill-rule="nonzero"/><path fill="#d3d3d3" d="M 109.332031 110.234375 C 109.3125 110.886719 109.101562 111.515625 108.730469 112.046875 C 107.402344 113.9375 105.863281 115.363281 104.121094 116.332031 C 101.828125 117.613281 99.179688 118.097656 96.191406 117.820312 C 95.054688 117.714844 93.976562 117.246094 93.097656 116.515625 C 85.621094 110.316406 79.671875 99.457031 74.832031 85.25 C 74.195312 83.390625 75.3125 81.378906 77.222656 80.953125 C 82.464844 79.78125 87.335938 78.085938 91.847656 75.871094 C 93.097656 75.257812 94.324219 74.605469 95.515625 73.910156 C 97.140625 72.96875 99.230469 73.558594 100.136719 75.207031 C 106.578125 86.933594 109.695312 98.609375 109.332031 110.234375 Z M 109.332031 110.234375 " fill-opacity="1" fill-rule="nonzero"/><path fill="#ffffff" d="M 109.332031 110.234375 C 109.3125 110.886719 109.101562 111.515625 108.730469 112.046875 C 107.402344 113.9375 105.863281 115.363281 104.121094 116.332031 C 103.59375 100.527344 100.425781 86.4375 91.847656 75.871094 C 93.097656 75.257812 94.324219 74.605469 95.515625 73.910156 C 97.140625 72.96875 99.230469 73.558594 100.136719 75.207031 C 106.578125 86.933594 109.695312 98.609375 109.332031 110.234375 Z M 109.332031 110.234375 " fill-opacity="1" fill-rule="nonzero"/><path fill="#8b8b8b" d="M 90.242188 55.085938 C 91.425781 52.898438 92.730469 50.875 94.566406 49.53125 C 95.144531 49.109375 95.824219 48.820312 96.539062 48.804688 C 100.503906 48.714844 102.484375 55.496094 99.929688 58.789062 C 97.675781 61.425781 95.171875 63.023438 92.5 63.929688 C 92.5 63.929688 90.242188 55.085938 90.242188 55.085938 Z M 90.242188 55.085938 " fill-opacity="1" fill-rule="nonzero"/><path fill="#8b8b8b" d="M 81.382812 54.914062 C 79.324219 49.445312 77.960938 45.046875 77.34375 41.792969 C 76.769531 38.746094 79.171875 35.859375 82.265625 36.074219 C 82.363281 36.078125 82.464844 36.089844 82.5625 36.101562 C 83.941406 36.285156 85.113281 37.207031 85.714844 38.460938 C 87.367188 41.898438 88.195312 47.769531 88.761719 54.429688 C 88.761719 54.429688 81.382812 54.914062 81.382812 54.914062 Z M 81.382812 54.914062 " fill-opacity="1" fill-rule="nonzero"/><path fill="#8b8b8b" d="M 73.230469 59.347656 C 70.367188 55.007812 67.417969 50.601562 65.914062 47.277344 C 65.097656 45.460938 65.222656 43.324219 66.371094 41.703125 C 67.121094 40.640625 68.125 40.054688 69.402344 39.984375 C 71.113281 39.894531 72.710938 40.839844 73.578125 42.320312 C 75.527344 45.652344 77.367188 50.578125 79.191406 55.734375 C 79.191406 55.734375 73.230469 59.347656 73.230469 59.347656 Z M 73.230469 59.347656 " fill-opacity="1" fill-rule="nonzero"/><path fill="#8b8b8b" d="M 71.554688 60.90625 C 69.828125 57.960938 68.101562 55.054688 66.492188 53.328125 C 65.339844 52.09375 63.558594 51.585938 61.96875 52.160156 C 60.878906 52.550781 60.226562 53.308594 59.984375 54.40625 C 59.75 55.480469 60.003906 56.613281 60.625 57.523438 C 62.796875 60.726562 65.726562 63.347656 68.921875 65.765625 C 68.921875 65.765625 71.554688 60.90625 71.554688 60.90625 Z M 71.554688 60.90625 " fill-opacity="1" fill-rule="nonzero"/><path fill="#8b8b8b" d="M 68.921875 65.765625 C 69.542969 59.265625 84.050781 51.230469 90.242188 55.085938 C 94.296875 64.421875 93.039062 70.871094 85.332031 73.824219 C 77.773438 77.316406 72.347656 74.492188 68.921875 65.765625 Z M 68.921875 65.765625 " fill-opacity="1" fill-rule="nonzero"/></svg>