<svg xmlns="http://www.w3.org/2000/svg" xmlns:xlink="http://www.w3.org/1999/xlink" width="300" zoomAndPan="magnify" viewBox="0 0 224.87999 187.499995" height="250" preserveAspectRatio="xMidYMid meet" version="1.0"><defs><g/></defs><path fill="#d3d3d3" d="M 151.980469 27.265625 C 151.980469 28.722656 151.976562 30.179688 151.980469 31.636719 C 151.984375 33.296875 152.199219 33.316406 153.835938 33.285156 C 155.496094 33.253906 157.269531 33.28125 158.800781 33.832031 C 161.179688 34.683594 162.386719 37.894531 161.703125 40.570312 C 160.96875 43.453125 158.519531 45.394531 155.8125 45.242188 C 155.234375 45.210938 154.65625 45.210938 154.078125 45.179688 C 151.960938 45.070312 151.960938 45.066406 151.960938 47.109375 C 151.960938 49.925781 151.894531 52.746094 151.992188 55.5625 C 152.035156 56.851562 151.4375 57.191406 150.359375 57.175781 C 148.074219 57.144531 145.792969 57.101562 143.511719 57.066406 C 143.074219 57.0625 142.636719 57.046875 142.199219 57.070312 C 140.414062 57.160156 140.054688 57.699219 140.644531 59.382812 C 142.234375 63.921875 139.488281 68.367188 134.964844 68.589844 C 130.113281 68.824219 126.792969 64.253906 128.414062 59.574219 C 129.101562 57.59375 128.71875 57.03125 126.601562 57.015625 C 123.980469 56.992188 121.355469 56.980469 118.734375 57.019531 C 117.492188 57.039062 117.003906 56.554688 117.035156 55.292969 C 117.105469 52.476562 117.085938 49.65625 117.082031 46.839844 C 117.082031 44.925781 116.703125 44.65625 114.941406 45.28125 C 112.34375 46.195312 109.011719 45.386719 107.605469 43.5 C 105.832031 41.113281 105.8125 37.332031 107.554688 35.03125 C 109.28125 32.753906 112.222656 31.921875 114.992188 32.925781 C 116.6875 33.539062 117.121094 33.257812 117.128906 31.503906 C 117.144531 28.589844 117.1875 25.671875 117.128906 22.761719 C 117.105469 21.554688 117.546875 21.101562 118.734375 21.121094 C 121.695312 21.171875 124.660156 21.140625 127.621094 21.175781 C 129.253906 21.195312 129.46875 21.605469 128.746094 23.148438 C 127.410156 25.984375 127.964844 29.546875 130.046875 31.515625 C 132.101562 33.460938 135.394531 33.824219 138.042969 32.398438 C 140.941406 30.84375 142.164062 26.769531 140.726562 23.472656 C 139.824219 21.402344 139.957031 21.199219 142.265625 21.195312 C 145.03125 21.191406 147.800781 21.234375 150.570312 21.1875 C 151.625 21.167969 152.058594 21.496094 152.003906 22.601562 C 151.921875 24.152344 151.980469 25.710938 151.980469 27.265625 Z M 151.980469 27.265625 " fill-opacity="1" fill-rule="nonzero"/><path fill="#d3d3d3" d="M 153.542969 58.039062 C 153.542969 58.039062 162.9375 58.039062 162.9375 58.039062 C 163.328125 58.039062 163.617188 58.410156 163.507812 58.785156 C 162.570312 62.003906 162.792969 64.949219 165.335938 67.425781 C 166.84375 68.894531 168.664062 69.496094 170.773438 69.410156 C 173.621094 69.300781 175.625 67.902344 176.988281 65.492188 C 178.222656 63.304688 177.988281 61.027344 177.308594 58.742188 C 177.207031 58.398438 177.433594 58.027344 177.792969 57.992188 C 177.8125 57.992188 177.832031 57.992188 177.847656 57.992188 C 180.953125 57.984375 184.0625 57.984375 187.304688 57.984375 C 187.628906 57.984375 187.890625 58.25 187.890625 58.574219 C 187.890625 58.574219 187.890625 65.570312 187.890625 65.570312 C 187.890625 66.105469 187.886719 66.640625 187.894531 67.175781 C 187.921875 69.070312 188.308594 69.347656 190.074219 68.730469 C 192.820312 67.765625 195.554688 68.492188 197.296875 70.648438 C 199.210938 73.015625 199.28125 76.609375 197.464844 79.207031 C 196.046875 81.234375 192.710938 82.039062 189.917969 81.027344 C 188.335938 80.449219 187.898438 80.738281 187.886719 82.4375 C 187.863281 85.304688 187.828125 88.171875 187.894531 91.039062 C 187.921875 92.378906 187.398438 92.863281 186.09375 92.832031 C 183.46875 92.773438 180.84375 92.792969 178.21875 92.800781 C 176.175781 92.808594 175.808594 93.347656 176.472656 95.296875 C 177.511719 98.339844 176.542969 101.464844 174.035156 103.179688 C 171.714844 104.761719 168.367188 104.609375 166.144531 102.8125 C 163.992188 101.074219 163.191406 98.023438 164.171875 95.28125 C 164.898438 93.25 164.570312 92.789062 162.382812 92.785156 C 159.902344 92.78125 157.425781 92.789062 154.949219 92.78125 C 152.976562 92.777344 152.742188 92.546875 152.746094 90.628906 C 152.746094 87.859375 152.765625 85.089844 152.765625 82.320312 C 152.761719 80.566406 152.417969 80.335938 150.777344 80.945312 C 148.316406 81.855469 145.164062 81.222656 143.621094 79.507812 C 141.9375 77.636719 141.503906 74.1875 142.652344 71.832031 C 143.839844 69.394531 146.179688 68.023438 148.929688 68.210938 C 149.546875 68.253906 150.167969 68.433594 150.757812 68.632812 C 152.503906 69.234375 152.902344 68.972656 152.917969 67.066406 C 152.945312 64.539062 152.945312 62.011719 152.957031 59.484375 C 152.957031 59.199219 152.957031 58.914062 152.957031 58.625 C 152.957031 58.300781 153.21875 58.039062 153.542969 58.039062 Z M 153.542969 58.039062 " fill-opacity="1" fill-rule="nonzero"/><path fill="#d3d3d3" d="M 163.839844 21.859375 C 164.070312 21.945312 164.175781 22.222656 164.078125 22.453125 C 162.390625 26.40625 162.597656 30.078125 166.445312 32.773438 C 169.015625 34.578125 172.59375 34.359375 174.863281 32.328125 C 177.828125 29.675781 178.152344 26.472656 176.757812 22.964844 C 176.539062 22.421875 176.921875 21.808594 177.507812 21.804688 C 177.511719 21.804688 177.511719 21.804688 177.515625 21.804688 C 180.335938 21.785156 183.15625 21.820312 185.972656 21.769531 C 186.992188 21.75 187.3125 22.113281 187.292969 23.117188 C 187.242188 26.035156 187.269531 28.949219 187.289062 31.867188 C 187.296875 33.707031 188.191406 34.316406 189.898438 33.679688 C 192.832031 32.589844 195.476562 33.335938 197.109375 35.714844 C 198.617188 37.902344 198.449219 41.484375 196.746094 43.503906 C 195.40625 45.089844 192.402344 45.714844 190.140625 44.878906 C 188.003906 44.089844 187.304688 44.582031 187.296875 46.886719 C 187.289062 49.558594 187.238281 52.234375 187.324219 54.90625 C 187.367188 56.214844 187.015625 56.726562 185.621094 56.664062 C 183.097656 56.554688 180.566406 56.621094 178.039062 56.625 C 175.824219 56.625 175.148438 57.589844 175.890625 59.675781 C 177.40625 63.949219 174.691406 68.039062 170.320312 68.054688 C 166.207031 68.070312 163.347656 64.167969 164.578125 60.210938 C 164.679688 59.886719 164.824219 59.574219 164.929688 59.253906 C 165.433594 57.714844 164.703125 56.652344 163.058594 56.636719 C 160.339844 56.605469 157.617188 56.582031 154.894531 56.652344 C 153.5625 56.6875 153.222656 56.285156 153.335938 54.53125 C 153.460938 52.546875 153.410156 50.621094 153.335938 48.652344 C 153.273438 46.980469 153.578125 46.5625 154.828125 46.636719 C 161.234375 47.035156 165.101562 41.308594 162.34375 35.53125 C 161.082031 32.894531 158.816406 31.90625 156.074219 31.820312 C 153.324219 31.734375 153.320312 31.78125 153.324219 29.035156 C 153.324219 26.992188 153.277344 24.949219 153.371094 22.914062 C 153.386719 22.527344 153.957031 21.847656 154.28125 21.84375 C 157.4375 21.773438 160.597656 21.816406 163.753906 21.84375 C 163.78125 21.84375 163.808594 21.847656 163.839844 21.859375 Z M 163.839844 21.859375 " fill-opacity="1" fill-rule="nonzero"/><path fill="#d3d3d3" d="M 128.96875 103.917969 C 131.207031 106.046875 132.652344 108.367188 133.269531 110.886719 C 133.269531 110.886719 119.773438 120.269531 119.773438 120.269531 C 117.691406 118.171875 117.292969 115.75 118.984375 112.925781 C 118.984375 112.925781 128.96875 103.917969 128.96875 103.917969 Z M 128.96875 103.917969 " fill-opacity="1" fill-rule="nonzero"/><path fill="#d3d3d3" d="M 130.699219 103.253906 C 130.800781 103.457031 130.757812 103.703125 130.597656 103.859375 C 130.597656 103.859375 128.554688 105.847656 128.554688 105.847656 C 128.554688 105.847656 117.640625 116.46875 117.640625 116.46875 C 107.894531 105.433594 102.144531 94.234375 109.632812 87.78125 C 110.175781 87.3125 110.789062 86.867188 111.472656 86.449219 C 119.578125 84.984375 125.4375 92.871094 130.699219 103.253906 Z M 130.699219 103.253906 " fill-opacity="1" fill-rule="nonzero"/><path fill="#ffffff" d="M 130.582031 103.875 C 130.582031 103.875 128.554688 105.847656 128.554688 105.847656 C 124.074219 96.214844 118.015625 89.695312 109.632812 87.78125 C 110.175781 87.3125 110.789062 86.867188 111.472656 86.449219 C 119.574219 84.984375 125.429688 92.859375 130.6875 103.234375 C 130.796875 103.449219 130.753906 103.710938 130.582031 103.875 Z M 130.582031 103.875 " fill-opacity="1" fill-rule="nonzero"/><path fill="#d3d3d3" d="M 144.75 133.503906 C 144.824219 134.382812 144.347656 135.207031 143.570312 135.613281 C 142.171875 136.34375 140.710938 136.976562 139.191406 137.515625 C 135.535156 138.820312 131.539062 139.585938 127.242188 139.863281 C 126.910156 139.882812 126.582031 139.78125 126.328125 139.570312 C 120.886719 135.128906 117.019531 129.296875 117.808594 119.339844 C 118.554688 119.933594 124.839844 115.980469 129.199219 112.683594 C 131.167969 111.191406 132.746094 109.835938 133.242188 109.09375 C 133.367188 108.90625 133.636719 108.882812 133.789062 109.050781 C 141.300781 117.308594 144.082031 125.4375 144.75 133.503906 Z M 144.75 133.503906 " fill-opacity="1" fill-rule="nonzero"/><path fill="#ffffff" d="M 143.570312 135.613281 C 142.171875 136.34375 140.710938 136.976562 139.191406 137.515625 C 138.144531 127.996094 135.242188 119.488281 129.199219 112.683594 C 131.175781 111.1875 132.753906 109.828125 133.246094 109.089844 C 133.367188 108.902344 133.632812 108.878906 133.785156 109.046875 C 141.296875 117.304688 144.082031 125.433594 144.75 133.507812 C 144.824219 134.382812 144.347656 135.207031 143.570312 135.613281 Z M 143.570312 135.613281 " fill-opacity="1" fill-rule="nonzero"/><path fill="#d3d3d3" d="M 128.957031 141.5625 C 134.308594 140.273438 139.292969 139.652344 143.140625 141.125 C 143.667969 141.324219 144.0625 141.777344 144.175781 142.332031 C 145.65625 149.542969 142.59375 153.511719 137.261719 155.859375 C 135.148438 156.171875 134.15625 155.320312 134.652344 152.929688 C 131.410156 153.960938 129.957031 152.507812 130.335938 148.515625 C 128.5625 149.449219 127.4375 149.261719 127.242188 147.453125 C 127.160156 146.714844 127.292969 145.964844 127.578125 145.28125 C 127.894531 144.515625 128.050781 143.714844 128 142.867188 C 127.96875 142.257812 128.363281 141.707031 128.957031 141.5625 Z M 128.957031 141.5625 " fill-opacity="1" fill-rule="nonzero"/><path fill="#d3d3d3" d="M 89.703125 147.148438 C 64.203125 148.757812 52.613281 129.929688 48.832031 99.621094 C 48.832031 99.621094 52.503906 98.898438 52.503906 98.898438 C 52.503906 98.898438 114.386719 86.703125 114.386719 86.703125 C 114.730469 87.660156 115.054688 88.617188 115.355469 89.570312 C 124.453125 118.246094 114.753906 143.972656 89.703125 147.148438 Z M 89.703125 147.148438 " fill-opacity="1" fill-rule="nonzero"/><path fill="#ffffff" d="M 89.441406 137.816406 C 68.214844 139.148438 57.238281 124.027344 52.503906 98.898438 C 52.503906 98.898438 114.386719 86.703125 114.386719 86.703125 C 114.730469 87.660156 115.050781 88.617188 115.355469 89.570312 C 119.441406 114.4375 110.085938 135.09375 89.441406 137.816406 Z M 89.441406 137.816406 " fill-opacity="1" fill-rule="nonzero"/><path fill="#d3d3d3" d="M 103.535156 99.425781 C 103.535156 99.425781 110.253906 97.390625 110.253906 97.390625 C 111.101562 97.132812 111.984375 97.628906 112.074219 98.417969 C 112.074219 98.417969 113.671875 112.070312 113.671875 112.070312 C 113.738281 112.621094 113.394531 113.15625 112.824219 113.382812 C 110.625 114.25 108.300781 114.726562 105.878906 114.894531 C 105.136719 114.949219 104.488281 114.488281 104.398438 113.832031 C 104.398438 113.832031 102.558594 100.808594 102.558594 100.808594 C 102.472656 100.207031 102.882812 99.625 103.535156 99.425781 Z M 103.535156 99.425781 " fill-opacity="1" fill-rule="nonzero"/><path fill="#02c1c2" d="M 104.132812 101.585938 C 104.132812 101.585938 104.484375 103.304688 104.484375 103.304688 C 104.542969 103.582031 104.855469 103.75 105.160156 103.664062 C 105.160156 103.664062 110.453125 102.183594 110.453125 102.183594 C 110.707031 102.113281 110.867188 101.894531 110.839844 101.664062 C 110.839844 101.664062 110.609375 99.695312 110.609375 99.695312 C 110.574219 99.390625 110.234375 99.203125 109.90625 99.304688 C 109.90625 99.304688 104.492188 101.035156 104.492188 101.035156 C 104.238281 101.117188 104.085938 101.351562 104.132812 101.585938 Z M 104.132812 101.585938 " fill-opacity="1" fill-rule="nonzero"/><path fill="#02c1c2" d="M 104.917969 105.820312 C 104.917969 105.820312 105.117188 107.53125 105.117188 107.53125 C 105.148438 107.800781 105.425781 107.988281 105.730469 107.941406 C 105.730469 107.941406 110.988281 107.121094 110.988281 107.121094 C 111.261719 107.078125 111.460938 106.855469 111.449219 106.613281 C 111.449219 106.613281 111.3125 104.078125 111.3125 104.078125 C 111.296875 103.761719 110.949219 103.554688 110.613281 103.660156 C 110.613281 103.660156 105.289062 105.304688 105.289062 105.304688 C 105.046875 105.382812 104.890625 105.597656 104.917969 105.820312 Z M 104.917969 105.820312 " fill-opacity="1" fill-rule="nonzero"/><path fill="#02c1c2" d="M 105.46875 110.527344 C 105.46875 110.527344 105.699219 112.503906 105.699219 112.503906 C 105.730469 112.777344 106.015625 112.964844 106.320312 112.914062 C 106.320312 112.914062 111.769531 111.964844 111.769531 111.964844 C 112.046875 111.917969 112.242188 111.683594 112.214844 111.433594 C 112.214844 111.433594 111.964844 109.285156 111.964844 109.285156 C 111.929688 109.003906 111.632812 108.816406 111.320312 108.878906 C 111.320312 108.878906 105.894531 109.996094 105.894531 109.996094 C 105.625 110.050781 105.4375 110.28125 105.46875 110.527344 Z M 105.46875 110.527344 " fill-opacity="1" fill-rule="nonzero"/><path fill="#d3d3d3" d="M 49.28125 100.441406 C 62.675781 108.105469 107.433594 98.390625 114.171875 87.886719 C 114.679688 87.09375 114.15625 86.050781 113.21875 85.988281 C 97.699219 84.945312 60.171875 91.519531 49.222656 98.769531 C 48.613281 99.171875 48.648438 100.078125 49.28125 100.441406 Z M 49.28125 100.441406 " fill-opacity="1" fill-rule="nonzero"/><path fill="#d3d3d3" d="M 105.503906 60.542969 C 105.542969 60.726562 105.5 60.914062 105.386719 61.0625 C 103.152344 63.941406 100.8125 66.484375 98.371094 68.699219 C 85.335938 80.503906 69.375 82.871094 50.757812 76.6875 C 50.089844 76.464844 49.597656 75.894531 49.476562 75.199219 C 46.960938 60.355469 48.210938 46.964844 61.882812 38.339844 C 63.207031 37.507812 64.644531 36.714844 66.210938 35.972656 C 70.429688 33.972656 75.03125 32.855469 79.707031 32.910156 C 94.1875 33.085938 101.828125 43.769531 105.503906 60.542969 Z M 105.503906 60.542969 " fill-opacity="1" fill-rule="nonzero"/><path fill="#ffffff" d="M 105.367188 61.085938 C 103.136719 63.957031 100.804688 66.492188 98.371094 68.699219 C 86.140625 76.925781 71.640625 77.851562 55.066406 72.082031 C 52.707031 59.054688 53.054688 47.070312 61.882812 38.339844 C 63.207031 37.507812 64.644531 36.714844 66.210938 35.972656 C 70.429688 33.972656 75.035156 32.855469 79.707031 32.910156 C 94.175781 33.085938 101.816406 43.757812 105.496094 60.511719 C 105.539062 60.710938 105.492188 60.925781 105.367188 61.085938 Z M 105.367188 61.085938 " fill-opacity="1" fill-rule="nonzero"/><path fill="#d3d3d3" d="M 77.398438 33 C 77.398438 33 72.921875 34.8125 72.921875 34.8125 C 72.921875 34.8125 61.976562 39.246094 61.976562 39.246094 C 61.476562 36.433594 60.542969 33.539062 68.050781 30.703125 C 68.308594 30.589844 68.566406 30.484375 68.816406 30.386719 C 73.164062 28.667969 76.199219 29.253906 77.398438 33 Z M 77.398438 33 " fill-opacity="1" fill-rule="nonzero"/><path fill="#ffffff" d="M 72.511719 35.003906 C 72.511719 31.757812 71.277344 30.449219 68.816406 30.386719 C 73.164062 28.667969 76.199219 29.253906 77.398438 33 C 77.398438 33 72.511719 35.003906 72.511719 35.003906 Z M 72.511719 35.003906 " fill-opacity="1" fill-rule="nonzero"/><path fill="#d3d3d3" d="M 62.09375 15.203125 C 64.402344 21.78125 65.570312 27.402344 65.390625 31.886719 C 65.390625 31.886719 71.574219 29.582031 71.574219 29.582031 C 67.566406 26.308594 65.199219 20.675781 63.332031 14.324219 C 63.332031 14.324219 62.09375 15.203125 62.09375 15.203125 Z M 62.09375 15.203125 " fill-opacity="1" fill-rule="nonzero"/><path fill="#02c1c2" d="M 67.613281 13.007812 C 68.167969 15.808594 66.34375 18.527344 63.542969 19.082031 C 60.742188 19.632812 58.023438 17.8125 57.46875 15.011719 C 56.917969 12.210938 58.738281 9.488281 61.539062 8.9375 C 64.339844 8.382812 67.058594 10.207031 67.613281 13.007812 Z M 67.613281 13.007812 " fill-opacity="1" fill-rule="nonzero"/><path fill="#003647" d="M 67.613281 13.007812 C 68.167969 15.808594 66.34375 18.527344 63.542969 19.082031 C 63.132812 19.160156 62.726562 19.195312 62.328125 19.175781 C 64.449219 18.199219 65.710938 15.867188 65.238281 13.476562 C 64.765625 11.085938 62.710938 9.40625 60.378906 9.3125 C 60.742188 9.144531 61.128906 9.019531 61.539062 8.9375 C 64.339844 8.382812 67.058594 10.207031 67.613281 13.007812 Z M 67.613281 13.007812 " fill-opacity="1" fill-rule="nonzero"/><path fill="#d3d3d3" d="M 97.777344 41.878906 C 80.515625 35.441406 70.375 40.59375 63.878906 51.683594 C 57.492188 64.207031 63.445312 73.046875 74.054688 70.917969 C 76.714844 70.382812 79.214844 69.222656 81.386719 67.589844 C 86.980469 63.386719 90.101562 60.359375 96.058594 60.867188 C 96.300781 60.886719 96.542969 60.925781 96.785156 60.96875 C 100.695312 61.636719 103.546875 60.753906 104.789062 57.511719 C 103.109375 51.386719 100.945312 45.9375 97.777344 41.878906 Z M 97.777344 41.878906 " fill-opacity="1" fill-rule="nonzero"/><path fill="#d3d3d3" d="M 50.28125 136.257812 C 50.628906 141.964844 46.566406 146.851562 41.207031 147.175781 C 35.851562 147.5 31.226562 143.140625 30.882812 137.433594 C 30.535156 131.726562 34.597656 126.839844 39.957031 126.515625 C 45.3125 126.191406 49.9375 130.550781 50.28125 136.257812 Z M 50.28125 136.257812 " fill-opacity="1" fill-rule="nonzero"/><path fill="#d3d3d3" d="M 49.054688 138.445312 C 43.910156 138.382812 39.28125 137.4375 35.632812 134.808594 C 33.628906 133.363281 31.921875 131.410156 30.585938 128.820312 C 30.417969 128.5 30.386719 128.125 30.503906 127.785156 C 33.699219 118.441406 38.921875 110.296875 44.53125 102.375 C 47.867188 98.832031 52.746094 97.621094 57.015625 98.625 C 62.570312 99.929688 67.105469 104.960938 65.90625 113.441406 C 62.445312 121.703125 56.953125 130.035156 49.054688 138.445312 Z M 49.054688 138.445312 " fill-opacity="1" fill-rule="nonzero"/><path fill="#ffffff" d="M 35.632812 134.808594 C 33.632812 133.367188 31.925781 131.417969 30.589844 128.832031 C 30.421875 128.503906 30.390625 128.117188 30.507812 127.769531 C 33.707031 118.433594 38.925781 110.292969 44.53125 102.375 C 47.871094 98.832031 52.746094 97.621094 57.015625 98.625 C 49.226562 106.296875 42.085938 118.257812 35.632812 134.808594 Z M 35.632812 134.808594 " fill-opacity="1" fill-rule="nonzero"/><path fill="#d3d3d3" d="M 73.703125 126.542969 C 73.84375 127.925781 73.367188 129.296875 72.4375 130.328125 C 64.511719 139.113281 54.65625 145.265625 43.542969 149.691406 C 41.359375 150.5625 38.851562 149.789062 37.578125 147.808594 C 35.949219 145.277344 34.671875 142.472656 33.949219 139.226562 C 33.53125 137.34375 33.296875 135.308594 33.296875 133.097656 C 33.296875 132 33.671875 130.933594 34.351562 130.074219 C 42.023438 120.308594 51.085938 112.613281 62.296875 108.46875 C 64.511719 107.648438 66.996094 108.523438 68.222656 110.542969 C 68.632812 111.214844 69.015625 111.882812 69.371094 112.546875 C 71.9375 117.328125 73.238281 121.980469 73.703125 126.542969 Z M 73.703125 126.542969 " fill-opacity="1" fill-rule="nonzero"/><path fill="#ffffff" d="M 69.371094 112.546875 C 54.3125 119.324219 42.5 128.210938 33.949219 139.226562 C 33.53125 137.34375 33.296875 135.308594 33.296875 133.097656 C 33.296875 132 33.671875 130.933594 34.347656 130.074219 C 42.019531 120.308594 51.085938 112.613281 62.296875 108.46875 C 64.511719 107.648438 66.996094 108.523438 68.222656 110.542969 C 68.632812 111.214844 69.015625 111.878906 69.371094 112.546875 Z M 69.371094 112.546875 " fill-opacity="1" fill-rule="nonzero"/><path fill="#d3d3d3" d="M 94.109375 157.726562 C 93.957031 157.917969 93.765625 158.0625 93.546875 158.144531 C 91.15625 159.0625 88.8125 159.632812 86.519531 159.855469 C 81.332031 160.359375 76.402344 159.097656 71.714844 156.121094 C 71.488281 155.976562 71.3125 155.753906 71.210938 155.492188 C 70.660156 154.050781 70.613281 152.679688 71.039062 151.375 C 71.28125 150.644531 72.023438 150.253906 72.6875 150.503906 C 77.800781 152.441406 83.03125 153.277344 88.386719 152.894531 C 90.285156 152.757812 92.199219 152.46875 94.132812 152.019531 C 94.933594 151.835938 95.671875 152.511719 95.625 153.394531 C 95.539062 155.070312 95.066406 156.53125 94.109375 157.726562 Z M 94.109375 157.726562 " fill-opacity="1" fill-rule="nonzero"/><path fill="#ffffff" d="M 94.109375 157.726562 C 93.957031 157.917969 93.765625 158.0625 93.546875 158.144531 C 91.15625 159.0625 88.8125 159.632812 86.519531 159.855469 C 88.96875 158.195312 89.816406 155.957031 88.386719 152.894531 C 90.285156 152.757812 92.199219 152.46875 94.132812 152.019531 C 94.933594 151.835938 95.671875 152.511719 95.625 153.394531 C 95.539062 155.070312 95.066406 156.53125 94.109375 157.726562 Z M 94.109375 157.726562 " fill-opacity="1" fill-rule="nonzero"/><path fill="#d3d3d3" d="M 90.6875 166.722656 C 90.59375 167 90.476562 167.28125 90.332031 167.550781 C 89.925781 168.324219 89.21875 168.871094 88.421875 169.046875 C 87.3125 169.296875 86.191406 169.484375 85.0625 169.609375 C 81.980469 169.957031 78.832031 169.847656 75.613281 169.304688 C 74.5 169.117188 73.546875 168.367188 73.0625 167.273438 C 72.808594 166.710938 72.664062 166.183594 72.644531 165.699219 C 72.59375 164.574219 73.53125 163.660156 74.554688 163.808594 C 78.648438 164.414062 82.59375 164.730469 86.332031 164.625 C 87.273438 164.597656 88.199219 164.542969 89.109375 164.460938 C 90.246094 164.359375 91.070312 165.542969 90.6875 166.722656 Z M 90.6875 166.722656 " fill-opacity="1" fill-rule="nonzero"/><path fill="#ffffff" d="M 90.6875 166.722656 C 90.59375 167 90.476562 167.28125 90.332031 167.550781 C 89.925781 168.324219 89.21875 168.871094 88.421875 169.046875 C 87.3125 169.296875 86.191406 169.484375 85.0625 169.609375 C 86.140625 168.261719 86.644531 166.636719 86.332031 164.625 C 87.273438 164.597656 88.199219 164.542969 89.109375 164.460938 C 90.246094 164.359375 91.070312 165.542969 90.6875 166.722656 Z M 90.6875 166.722656 " fill-opacity="1" fill-rule="nonzero"/><path fill="#02c1c2" d="M 82.125 98.449219 C 82.125 98.449219 82.355469 98.710938 82.355469 98.710938 C 82.355469 98.710938 89.832031 104.589844 89.832031 104.589844 C 90.300781 105.109375 90.164062 105.988281 89.492188 106.300781 C 88.542969 106.738281 87.679688 107.402344 86.976562 108.285156 C 84.621094 111.257812 85.101562 115.542969 88.0625 117.769531 C 90.917969 120.136719 95.191406 119.605469 97.542969 116.621094 C 98.234375 115.738281 98.679688 114.742188 98.886719 113.71875 C 99.035156 112.992188 99.855469 112.65625 100.46875 112.988281 C 100.46875 112.988281 107.925781 118.894531 107.925781 118.894531 C 107.925781 118.894531 108.234375 119.058594 108.234375 119.058594 C 108.699219 119.394531 109.355469 119.296875 109.722656 118.828125 C 109.722656 118.828125 116.246094 110.539062 116.246094 110.539062 C 116.707031 110.441406 117.207031 110.636719 117.417969 111.117188 C 118.371094 113.242188 120.480469 114.894531 123.691406 115.058594 C 124.019531 115.078125 124.363281 115.03125 124.675781 114.929688 C 130.917969 112.90625 131.632812 106.019531 127.683594 102.894531 C 126.847656 102.234375 125.898438 101.816406 124.914062 101.628906 C 124.382812 101.53125 124.085938 101.046875 124.105469 100.550781 C 124.105469 100.550781 130.664062 92.210938 130.664062 92.210938 C 131.046875 91.726562 130.972656 91.039062 130.507812 90.675781 C 130.507812 90.675781 122.644531 84.492188 122.644531 84.492188 C 122.644531 84.492188 122.511719 84.414062 122.511719 84.414062 C 122.511719 84.414062 122.464844 84.378906 122.464844 84.378906 C 121.796875 83.851562 120.824219 84.316406 120.730469 85.183594 C 120.441406 87.6875 118.746094 90.121094 115.507812 91.246094 C 114.890625 91.378906 114.257812 91.429688 113.628906 91.386719 C 112.171875 91.199219 110.964844 90.6875 110.015625 89.957031 C 109.089844 89.203125 108.308594 88.148438 107.792969 86.773438 C 107.601562 86.175781 107.5 85.550781 107.484375 84.917969 C 107.828125 81.503906 109.804688 79.289062 112.175781 78.429688 C 112.992188 78.132812 113.222656 77.082031 112.550781 76.554688 C 112.550781 76.554688 112.503906 76.519531 112.503906 76.519531 C 112.503906 76.519531 112.398438 76.402344 112.398438 76.402344 C 112.398438 76.402344 104.5625 70.195312 104.5625 70.195312 C 104.097656 69.824219 103.410156 69.914062 103.03125 70.394531 C 103.03125 70.394531 96.445312 78.714844 96.445312 78.714844 C 95.964844 78.851562 95.425781 78.671875 95.203125 78.179688 C 94.792969 77.261719 94.167969 76.433594 93.328125 75.777344 C 89.371094 72.664062 82.84375 74.953125 82.320312 81.492188 C 82.296875 81.828125 82.332031 82.167969 82.425781 82.484375 C 83.332031 85.566406 85.433594 87.238281 87.714844 87.671875 C 88.230469 87.769531 88.542969 88.207031 88.550781 88.679688 C 88.550781 88.679688 82.003906 96.945312 82.003906 96.945312 C 81.632812 97.410156 81.695312 98.070312 82.125 98.449219 Z M 82.125 98.449219 " fill-opacity="1" fill-rule="nonzero"/><path fill="#d3d3d3" d="M 74.78125 109.339844 C 72.769531 114.039062 73.109375 118.984375 75.011719 124.097656 C 75.90625 126.5 78.140625 127.992188 80.414062 127.722656 C 83.757812 127.328125 86.84375 126.5625 89.382812 125.015625 C 89.8125 124.753906 90.203125 124.417969 90.539062 124.023438 C 93.515625 120.546875 94.429688 116.300781 92.359375 110.949219 C 92.054688 110.15625 91.894531 109.300781 91.914062 108.449219 C 91.957031 106.34375 91.234375 104.949219 89.976562 104.046875 C 88.929688 103.296875 87.679688 103.058594 86.476562 103.25 C 83.140625 103.78125 79.972656 105.101562 76.910156 106.871094 C 75.976562 107.410156 75.234375 108.277344 74.78125 109.339844 Z M 74.78125 109.339844 " fill-opacity="1" fill-rule="nonzero"/><path fill="#02c1c2" d="M 77.636719 56.167969 C 78.039062 57.835938 77.644531 59.359375 76.757812 59.574219 C 75.867188 59.789062 74.816406 58.617188 74.414062 56.949219 C 74.011719 55.285156 74.40625 53.761719 75.296875 53.546875 C 76.183594 53.328125 77.234375 54.503906 77.636719 56.167969 Z M 77.636719 56.167969 " fill-opacity="1" fill-rule="nonzero"/><path fill="#02c1c2" d="M 97.640625 48.964844 C 98.175781 50.394531 97.992188 51.789062 97.230469 52.074219 C 96.464844 52.359375 95.410156 51.433594 94.875 50.003906 C 94.335938 48.574219 94.523438 47.183594 95.285156 46.898438 C 96.050781 46.609375 97.105469 47.535156 97.640625 48.964844 Z M 97.640625 48.964844 " fill-opacity="1" fill-rule="nonzero"/><path stroke-linecap="round" transform="matrix(0.177565, 0, 0, 0.177565, 88.289873, 55.909523)" fill="none" stroke-linejoin="round" d="M -19.891685 -0.612408 C -4.294375 13.90695 18.364622 4.029387 19.882554 -13.899819 " stroke="#02c1c2" stroke-width="7" stroke-opacity="1" stroke-miterlimit="4"/><g fill="#ffffff" fill-opacity="1"><g transform="translate(143.503567, 115.494703)"><g><path d="M 1.171875 -1.421875 C 1.171875 -1.984375 1.316406 -2.40625 1.609375 -2.6875 C 1.910156 -2.976562 2.347656 -3.125 2.921875 -3.125 C 3.472656 -3.125 3.898438 -2.976562 4.203125 -2.6875 C 4.503906 -2.394531 4.65625 -1.972656 4.65625 -1.421875 C 4.65625 -0.898438 4.503906 -0.488281 4.203125 -0.1875 C 3.898438 0.113281 3.472656 0.265625 2.921875 0.265625 C 2.367188 0.265625 1.9375 0.117188 1.625 -0.171875 C 1.320312 -0.472656 1.171875 -0.890625 1.171875 -1.421875 Z M 1.171875 -1.421875 "/></g></g></g></svg>