<svg xmlns="http://www.w3.org/2000/svg" xmlns:xlink="http://www.w3.org/1999/xlink" width="300" zoomAndPan="magnify" viewBox="0 0 224.87999 187.499995" height="250" preserveAspectRatio="xMidYMid meet" version="1.0"><path fill="#d3d3d3" d="M 123.121094 27.339844 C 139.667969 25.480469 165.308594 27.875 184.839844 30.539062 C 186.941406 30.828125 188.503906 32.632812 188.488281 34.757812 C 188.269531 68.035156 186.746094 98.25 183.605469 125.8125 C 183.367188 127.875 181.664062 129.460938 179.589844 129.550781 C 156.699219 130.554688 135.433594 130.84375 119.003906 128.988281 C 116.875 128.746094 115.265625 126.941406 115.261719 124.800781 C 115.164062 91.03125 116.144531 59.109375 119.394531 31.050781 C 119.621094 29.097656 121.167969 27.558594 123.121094 27.339844 Z M 123.121094 27.339844 " fill-opacity="1" fillRule="nonzero"/><path fill="#8b8b8b" d="M 127.476562 31.125 C 147.664062 29.453125 166.195312 29.863281 181.628906 34.179688 C 183.195312 34.617188 184.273438 36.046875 184.265625 37.671875 C 184.144531 61.917969 182.230469 90.472656 179.855469 120.128906 C 179.710938 121.941406 178.238281 123.363281 176.421875 123.449219 C 159.3125 124.25 141.285156 124.28125 122.414062 123.457031 C 120.441406 123.371094 118.902344 121.71875 118.957031 119.746094 C 119.832031 88.152344 121.386719 58.988281 124.191406 34.308594 C 124.386719 32.601562 125.761719 31.265625 127.476562 31.125 Z M 127.476562 31.125 " fill-opacity="1" fillRule="nonzero"/><path fill="#ffffff" d="M 145.808594 61.769531 C 145.808594 61.769531 130.597656 61.769531 130.597656 61.769531 C 129.9375 61.769531 129.402344 61.230469 129.402344 60.570312 C 129.402344 60.570312 129.402344 44.855469 129.402344 44.855469 C 129.402344 44.195312 129.9375 43.660156 130.597656 43.660156 C 130.597656 43.660156 145.808594 43.660156 145.808594 43.660156 C 146.46875 43.660156 147.003906 44.195312 147.003906 44.855469 C 147.003906 44.855469 147.003906 60.570312 147.003906 60.570312 C 147.003906 61.230469 146.46875 61.769531 145.808594 61.769531 Z M 145.808594 61.769531 " fill-opacity="1" fillRule="nonzero"/><path fill="#ffffff" d="M 145.808594 88.203125 C 145.808594 88.203125 129.367188 88.203125 129.367188 88.203125 C 128.707031 88.203125 128.167969 87.664062 128.167969 87.003906 C 128.167969 87.003906 128.167969 70.019531 128.167969 70.019531 C 128.167969 69.359375 128.707031 68.824219 129.367188 68.824219 C 129.367188 68.824219 145.808594 68.824219 145.808594 68.824219 C 146.46875 68.824219 147.003906 69.359375 147.003906 70.019531 C 147.003906 70.019531 147.003906 87.003906 147.003906 87.003906 C 147.003906 87.664062 146.46875 88.203125 145.808594 88.203125 Z M 145.808594 88.203125 " fill-opacity="1" fillRule="nonzero"/><path fill="#ffffff" d="M 145.808594 112.90625 C 145.808594 112.90625 129.367188 112.90625 129.367188 112.90625 C 128.707031 112.90625 128.167969 112.371094 128.167969 111.710938 C 128.167969 111.710938 128.167969 95.996094 128.167969 95.996094 C 128.167969 95.335938 128.707031 94.800781 129.367188 94.800781 C 129.367188 94.800781 145.808594 94.800781 145.808594 94.800781 C 146.46875 94.800781 147.003906 95.335938 147.003906 95.996094 C 147.003906 95.996094 147.003906 111.710938 147.003906 111.710938 C 147.003906 112.371094 146.46875 112.90625 145.808594 112.90625 Z M 145.808594 112.90625 " fill-opacity="1" fillRule="nonzero"/><path fill="#ffffff" d="M 176.832031 50.503906 C 176.832031 50.503906 155.367188 50.503906 155.367188 50.503906 C 154.859375 50.503906 154.445312 50.09375 154.445312 49.585938 C 154.445312 49.585938 154.445312 47.511719 154.445312 47.511719 C 154.445312 47.003906 154.859375 46.59375 155.367188 46.59375 C 155.367188 46.59375 176.832031 46.59375 176.832031 46.59375 C 177.339844 46.59375 177.753906 47.003906 177.753906 47.511719 C 177.753906 47.511719 177.753906 49.585938 177.753906 49.585938 C 177.753906 50.09375 177.339844 50.503906 176.832031 50.503906 Z M 176.832031 50.503906 " fill-opacity="1" fillRule="nonzero"/><path fill="#ffffff" d="M 171.945312 57.945312 C 171.945312 57.945312 155.367188 57.945312 155.367188 57.945312 C 154.859375 57.945312 154.445312 57.535156 154.445312 57.027344 C 154.445312 57.027344 154.445312 54.953125 154.445312 54.953125 C 154.445312 54.445312 154.859375 54.035156 155.367188 54.035156 C 155.367188 54.035156 171.945312 54.035156 171.945312 54.035156 C 172.453125 54.035156 172.863281 54.445312 172.863281 54.953125 C 172.863281 54.953125 172.863281 57.027344 172.863281 57.027344 C 172.863281 57.535156 172.453125 57.945312 171.945312 57.945312 Z M 171.945312 57.945312 " fill-opacity="1" fillRule="nonzero"/><path fill="#ffffff" d="M 175.394531 77.015625 C 175.394531 77.015625 153.925781 77.015625 153.925781 77.015625 C 153.417969 77.015625 153.007812 76.605469 153.007812 76.097656 C 153.007812 76.097656 153.007812 74.023438 153.007812 74.023438 C 153.007812 73.515625 153.417969 73.105469 153.925781 73.105469 C 153.925781 73.105469 175.394531 73.105469 175.394531 73.105469 C 175.902344 73.105469 176.3125 73.515625 176.3125 74.023438 C 176.3125 74.023438 176.3125 76.097656 176.3125 76.097656 C 176.3125 76.605469 175.902344 77.015625 175.394531 77.015625 Z M 175.394531 77.015625 " fill-opacity="1" fillRule="nonzero"/><path fill="#ffffff" d="M 170.503906 84.457031 C 170.503906 84.457031 153.925781 84.457031 153.925781 84.457031 C 153.417969 84.457031 153.007812 84.046875 153.007812 83.539062 C 153.007812 83.539062 153.007812 81.464844 153.007812 81.464844 C 153.007812 80.957031 153.417969 80.546875 153.925781 80.546875 C 153.925781 80.546875 170.503906 80.546875 170.503906 80.546875 C 171.011719 80.546875 171.421875 80.957031 171.421875 81.464844 C 171.421875 81.464844 171.421875 83.539062 171.421875 83.539062 C 171.421875 84.046875 171.011719 84.457031 170.503906 84.457031 Z M 170.503906 84.457031 " fill-opacity="1" fillRule="nonzero"/><path fill="#ffffff" d="M 172.949219 102.085938 C 172.949219 102.085938 151.480469 102.085938 151.480469 102.085938 C 150.972656 102.085938 150.5625 101.675781 150.5625 101.167969 C 150.5625 101.167969 150.5625 99.097656 150.5625 99.097656 C 150.5625 98.589844 150.972656 98.175781 151.480469 98.175781 C 151.480469 98.175781 172.949219 98.175781 172.949219 98.175781 C 173.457031 98.175781 173.867188 98.589844 173.867188 99.097656 C 173.867188 99.097656 173.867188 101.167969 173.867188 101.167969 C 173.867188 101.675781 173.457031 102.085938 172.949219 102.085938 Z M 172.949219 102.085938 " fill-opacity="1" fillRule="nonzero"/><path fill="#ffffff" d="M 168.058594 109.53125 C 168.058594 109.53125 151.480469 109.53125 151.480469 109.53125 C 150.972656 109.53125 150.5625 109.117188 150.5625 108.609375 C 150.5625 108.609375 150.5625 106.539062 150.5625 106.539062 C 150.5625 106.03125 150.972656 105.617188 151.480469 105.617188 C 151.480469 105.617188 168.058594 105.617188 168.058594 105.617188 C 168.566406 105.617188 168.976562 106.03125 168.976562 106.539062 C 168.976562 106.539062 168.976562 108.609375 168.976562 108.609375 C 168.976562 109.117188 168.566406 109.53125 168.058594 109.53125 Z M 168.058594 109.53125 " fill-opacity="1" fillRule="nonzero"/><path fill="#02c1c2" d="M 140.59375 24.957031 C 140.59375 24.957031 140.59375 30.136719 140.59375 30.136719 C 140.59375 31.429688 141.628906 32.484375 142.925781 32.507812 C 142.925781 32.507812 169.144531 32.96875 169.144531 32.96875 C 170.46875 32.992188 171.558594 31.921875 171.558594 30.59375 C 171.558594 30.59375 171.558594 24.96875 171.558594 24.96875 C 171.558594 23.742188 170.621094 22.714844 169.394531 22.605469 C 169.394531 22.605469 165.234375 22.238281 165.234375 22.238281 C 163.96875 22.125 163.019531 21.039062 163.070312 19.769531 C 163.070312 19.769531 163.085938 19.40625 163.085938 19.40625 C 163.144531 18.054688 162.066406 16.929688 160.714844 16.929688 C 160.714844 16.929688 151.929688 16.929688 151.929688 16.929688 C 150.683594 16.929688 149.652344 17.890625 149.5625 19.132812 C 149.5625 19.132812 149.5 19.960938 149.5 19.960938 C 149.417969 21.117188 148.511719 22.042969 147.359375 22.152344 C 147.359375 22.152344 142.742188 22.59375 142.742188 22.59375 C 141.523438 22.707031 140.59375 23.730469 140.59375 24.957031 Z M 140.59375 24.957031 " fill-opacity="1" fillRule="nonzero"/><path fill="#d3d3d3" d="M 101.175781 130.132812 C 97.226562 139.648438 89.890625 145.316406 77.902344 146.445312 C 77.902344 146.445312 77.898438 146.445312 77.898438 146.445312 C 77.160156 146.515625 76.402344 146.570312 75.625 146.601562 C 73.621094 146.542969 71.738281 146.359375 69.96875 146.0625 C 48.136719 142.414062 43.824219 121.386719 43.835938 96.074219 C 43.835938 96.074219 47.515625 95.886719 47.515625 95.886719 C 47.515625 95.886719 66.859375 94.90625 66.859375 94.90625 C 66.859375 94.90625 86.25 93.925781 86.25 93.925781 C 86.25 93.925781 86.257812 93.925781 86.257812 93.925781 C 86.257812 93.925781 104.332031 93.007812 104.332031 93.007812 C 105.628906 108.472656 104.945312 121.054688 101.175781 130.132812 Z M 101.175781 130.132812 " fill-opacity="1" fillRule="nonzero"/><path fill="#ffffff" d="M 101.175781 130.132812 C 96.882812 135.816406 90.5 139.234375 81.488281 140.082031 C 80.746094 140.152344 79.988281 140.207031 79.214844 140.242188 C 77.207031 140.179688 75.324219 139.996094 73.554688 139.699219 C 53.523438 136.351562 48.242188 118.378906 47.515625 95.886719 C 47.515625 95.886719 66.859375 94.90625 66.859375 94.90625 C 66.859375 94.90625 86.25 93.925781 86.25 93.925781 C 86.25 93.925781 86.257812 93.925781 86.257812 93.925781 C 86.257812 93.925781 104.332031 93.007812 104.332031 93.007812 C 105.628906 108.472656 104.945312 121.054688 101.175781 130.132812 Z M 101.175781 130.132812 " fill-opacity="1" fillRule="nonzero"/><path fill="#8b8b8b" d="M 93.371094 103.691406 C 93.371094 103.691406 98.980469 103.183594 98.980469 103.183594 C 99.691406 103.121094 100.304688 103.644531 100.253906 104.265625 C 100.253906 104.265625 99.339844 115.050781 99.339844 115.050781 C 99.300781 115.484375 98.949219 115.84375 98.460938 115.925781 C 96.59375 116.246094 94.6875 116.246094 92.757812 115.996094 C 92.164062 115.917969 91.726562 115.457031 91.757812 114.9375 C 91.757812 114.9375 92.382812 104.601562 92.382812 104.601562 C 92.410156 104.125 92.828125 103.742188 93.371094 103.691406 Z M 93.371094 103.691406 " fill-opacity="1" fillRule="nonzero"/><path fill="#02c1c2" d="M 93.5 105.453125 C 93.5 105.453125 93.5 106.832031 93.5 106.832031 C 93.503906 107.058594 93.722656 107.234375 93.976562 107.21875 C 93.976562 107.21875 98.378906 106.914062 98.378906 106.914062 C 98.585938 106.898438 98.75 106.753906 98.765625 106.574219 C 98.765625 106.574219 98.894531 105.019531 98.894531 105.019531 C 98.917969 104.78125 98.675781 104.578125 98.40625 104.609375 C 98.40625 104.609375 93.871094 105.085938 93.871094 105.085938 C 93.65625 105.105469 93.5 105.261719 93.5 105.453125 Z M 93.5 105.453125 " fill-opacity="1" fillRule="nonzero"/><path fill="#02c1c2" d="M 93.441406 108.84375 C 93.441406 108.84375 93.328125 110.191406 93.328125 110.191406 C 93.308594 110.40625 93.5 110.59375 93.746094 110.605469 C 93.746094 110.605469 98.015625 110.804688 98.015625 110.804688 C 98.234375 110.816406 98.425781 110.679688 98.457031 110.488281 C 98.457031 110.488281 98.753906 108.511719 98.753906 108.511719 C 98.789062 108.265625 98.550781 108.050781 98.269531 108.078125 C 98.269531 108.078125 93.816406 108.503906 93.816406 108.503906 C 93.613281 108.523438 93.457031 108.664062 93.441406 108.84375 Z M 93.441406 108.84375 " fill-opacity="1" fillRule="nonzero"/><path fill="#02c1c2" d="M 93.128906 112.558594 C 93.128906 112.558594 92.996094 114.121094 92.996094 114.121094 C 92.976562 114.339844 93.171875 114.527344 93.421875 114.535156 C 93.421875 114.535156 97.855469 114.667969 97.855469 114.667969 C 98.085938 114.675781 98.277344 114.527344 98.292969 114.328125 C 98.292969 114.328125 98.4375 112.628906 98.4375 112.628906 C 98.453125 112.40625 98.25 112.214844 97.996094 112.214844 C 97.996094 112.214844 93.546875 112.21875 93.546875 112.21875 C 93.324219 112.21875 93.144531 112.363281 93.128906 112.558594 Z M 93.128906 112.558594 " fill-opacity="1" fillRule="nonzero"/><path fill="#8b8b8b" d="M 44.976562 97.714844 C 53.960938 102.296875 95.941406 100.039062 103.625 94.601562 C 104.824219 93.75 104.476562 92.046875 103.015625 91.53125 C 93.445312 88.160156 53.960938 89.25 44.84375 94.34375 C 43.441406 95.128906 43.511719 96.96875 44.976562 97.714844 Z M 44.976562 97.714844 " fill-opacity="1" fillRule="nonzero"/><path fill="#d3d3d3" d="M 101.097656 74.820312 C 98.324219 77.050781 95.53125 78.925781 92.71875 80.460938 C 77.800781 88.574219 62.269531 86.984375 46.183594 76.617188 C 47.042969 61.925781 51.019531 49.386719 65.894531 44.371094 C 67.296875 43.898438 68.800781 43.492188 70.40625 43.160156 C 74.738281 42.253906 79.226562 42.253906 83.515625 43.347656 C 96.882812 46.757812 101.511719 58.410156 101.097656 74.820312 Z M 101.097656 74.820312 " fill-opacity="1" fillRule="nonzero"/><path fill="#ffffff" d="M 101.097656 74.820312 C 98.324219 77.050781 95.53125 78.925781 92.71875 80.460938 C 79.621094 85.308594 66.070312 82.925781 52.09375 73.917969 C 52.828125 61.398438 55.820312 50.441406 65.894531 44.371094 C 67.296875 43.898438 68.800781 43.492188 70.40625 43.160156 C 74.738281 42.253906 79.226562 42.253906 83.515625 43.347656 C 96.882812 46.757812 101.511719 58.410156 101.097656 74.820312 Z M 101.097656 74.820312 " fill-opacity="1" fillRule="nonzero"/><path fill="#d3d3d3" d="M 81.371094 42.914062 C 81.371094 42.914062 76.84375 43.585938 76.84375 43.585938 C 76.84375 43.585938 65.777344 45.226562 65.777344 45.226562 C 65.945312 42.523438 65.734375 39.652344 73.277344 38.71875 C 73.542969 38.667969 73.800781 38.628906 74.054688 38.59375 C 78.4375 37.984375 81.101562 39.199219 81.371094 42.914062 Z M 81.371094 42.914062 " fill-opacity="1" fillRule="nonzero"/><path fill="#ffffff" d="M 76.425781 43.671875 C 77.148438 40.683594 76.304688 39.203125 74.054688 38.59375 C 78.4375 37.984375 81.101562 39.199219 81.371094 42.914062 C 81.371094 42.914062 76.425781 43.671875 76.425781 43.671875 Z M 76.425781 43.671875 " fill-opacity="1" fillRule="nonzero"/><path fill="#8b8b8b" d="M 71.25 23.117188 C 71.90625 29.6875 71.730469 35.121094 70.566406 39.214844 C 70.566406 39.214844 76.769531 38.46875 76.769531 38.46875 C 73.8125 34.5625 72.886719 28.847656 72.585938 22.582031 C 72.585938 22.582031 71.25 23.117188 71.25 23.117188 Z M 71.25 23.117188 " fill-opacity="1" fillRule="nonzero"/><path fill="#02c1c2" d="M 76.820312 22.324219 C 76.707031 25.027344 74.421875 27.125 71.71875 27.011719 C 69.015625 26.894531 66.921875 24.609375 67.035156 21.910156 C 67.148438 19.207031 69.433594 17.109375 72.136719 17.222656 C 74.839844 17.339844 76.9375 19.625 76.820312 22.324219 Z M 76.820312 22.324219 " fill-opacity="1" fillRule="nonzero"/><path fill="#8b8b8b" d="M 98.152344 55.636719 C 83.699219 45.859375 73.210938 48.339844 64.757812 57.101562 C 56.082031 67.207031 59.589844 76.671875 69.835938 77.078125 C 72.402344 77.179688 74.964844 76.667969 77.324219 75.652344 C 83.417969 73.027344 86.964844 70.9375 92.335938 72.734375 C 92.554688 72.808594 92.769531 72.898438 92.980469 72.988281 C 96.433594 74.476562 99.253906 74.296875 101.121094 71.589844 C 100.941406 65.578125 100.164062 60.078125 98.152344 55.636719 Z M 98.152344 55.636719 " fill-opacity="1" fillRule="nonzero"/><path fill="#8b8b8b" d="M 105.933594 103.984375 C 107.128906 109.949219 103.445312 115.710938 97.710938 116.859375 C 91.980469 118.003906 86.363281 114.097656 85.171875 108.132812 C 83.976562 102.167969 87.660156 96.40625 93.394531 95.257812 C 99.128906 94.113281 104.742188 98.019531 105.933594 103.984375 Z M 105.933594 103.984375 " fill-opacity="1" fillRule="nonzero"/><path fill="#d3d3d3" d="M 95.949219 118.261719 C 89.539062 122.265625 82.527344 124.6875 76.109375 125.285156 C 66.253906 126.199219 57.804688 122.800781 55.089844 114.171875 C 54.625 112.703125 54.421875 111.167969 54.507812 109.65625 C 54.585938 108.15625 54.945312 106.679688 55.609375 105.304688 C 59.078125 98.125 69.613281 94.710938 88.039062 95.5 C 88.996094 97.183594 89.867188 98.835938 90.648438 100.457031 C 93.734375 106.847656 95.484375 112.777344 95.949219 118.261719 Z M 95.949219 118.261719 " fill-opacity="1" fillRule="nonzero"/><path fill="#ffffff" d="M 90.648438 100.457031 C 73.363281 100.34375 61.324219 103.414062 54.507812 109.65625 C 54.585938 108.15625 54.945312 106.679688 55.609375 105.304688 C 59.078125 98.125 69.613281 94.710938 88.039062 95.5 C 88.996094 97.183594 89.867188 98.832031 90.648438 100.457031 Z M 90.648438 100.457031 " fill-opacity="1" fillRule="nonzero"/><path fill="#d3d3d3" d="M 75.023438 158.253906 C 74.84375 158.394531 74.632812 158.484375 74.414062 158.511719 C 72.003906 158.824219 69.722656 158.824219 67.558594 158.519531 C 62.675781 157.828125 58.417969 155.566406 54.765625 151.777344 C 54.589844 151.59375 54.472656 151.347656 54.441406 151.085938 C 54.253906 149.636719 54.515625 148.363281 55.203125 147.257812 C 55.585938 146.636719 56.355469 146.445312 56.910156 146.824219 C 61.1875 149.746094 65.816406 151.683594 70.835938 152.523438 C 72.613281 152.824219 74.441406 152.984375 76.320312 153 C 77.097656 153.011719 77.625 153.796875 77.386719 154.597656 C 76.933594 156.125 76.171875 157.367188 75.023438 158.253906 Z M 75.023438 158.253906 " fill-opacity="1" fillRule="nonzero"/><path fill="#ffffff" d="M 75.023438 158.253906 C 74.84375 158.394531 74.632812 158.484375 74.414062 158.511719 C 72.003906 158.824219 69.722656 158.824219 67.558594 158.519531 C 70.1875 157.539062 71.464844 155.664062 70.832031 152.523438 C 72.613281 152.824219 74.441406 152.984375 76.320312 153.003906 C 77.097656 153.011719 77.625 153.796875 77.386719 154.597656 C 76.933594 156.125 76.171875 157.367188 75.023438 158.253906 Z M 75.023438 158.253906 " fill-opacity="1" fillRule="nonzero"/><path fill="#d3d3d3" d="M 69.867188 165.769531 C 69.71875 166.007812 69.546875 166.234375 69.355469 166.453125 C 68.808594 167.074219 68.039062 167.417969 67.265625 167.40625 C 66.1875 167.386719 65.113281 167.308594 64.046875 167.175781 C 61.128906 166.804688 58.253906 166.003906 55.414062 164.785156 C 54.429688 164.363281 53.71875 163.460938 53.515625 162.34375 C 53.410156 161.769531 53.394531 161.253906 53.484375 160.800781 C 53.6875 159.757812 54.753906 159.125 55.664062 159.492188 C 59.296875 160.960938 62.859375 162.132812 66.324219 162.867188 C 67.195312 163.054688 68.0625 163.210938 68.917969 163.335938 C 69.988281 163.496094 70.484375 164.769531 69.867188 165.769531 Z M 69.867188 165.769531 " fill-opacity="1" fillRule="nonzero"/><path fill="#ffffff" d="M 69.867188 165.769531 C 69.71875 166.007812 69.546875 166.234375 69.355469 166.453125 C 68.808594 167.074219 68.039062 167.417969 67.265625 167.40625 C 66.1875 167.386719 65.113281 167.308594 64.046875 167.175781 C 65.339844 166.171875 66.164062 164.789062 66.324219 162.867188 C 67.195312 163.054688 68.0625 163.210938 68.917969 163.335938 C 69.988281 163.496094 70.484375 164.769531 69.867188 165.769531 Z M 69.867188 165.769531 " fill-opacity="1" fillRule="nonzero"/><path fill="#02c1c2" d="M 76.421875 64.300781 C 76.421875 65.921875 75.71875 67.238281 74.851562 67.238281 C 73.984375 67.238281 73.28125 65.921875 73.28125 64.300781 C 73.28125 62.679688 73.984375 61.363281 74.851562 61.363281 C 75.71875 61.363281 76.421875 62.679688 76.421875 64.300781 Z M 76.421875 64.300781 " fill-opacity="1" fillRule="nonzero"/><path fill="#02c1c2" d="M 96.445312 62.128906 C 96.621094 63.566406 96.140625 64.804688 95.375 64.898438 C 94.605469 64.992188 93.84375 63.90625 93.667969 62.46875 C 93.492188 61.03125 93.972656 59.792969 94.738281 59.699219 C 95.507812 59.605469 96.273438 60.695312 96.445312 62.128906 Z M 96.445312 62.128906 " fill-opacity="1" fillRule="nonzero"/><path stroke-linecap="round" transform="matrix(0.175714, 0, 0, 0.175714, 86.576592, 66.745956)" fill="none" stroke-linejoin="round" d="M -19.998912 -6.801811 C -8.772404 10.204681 14.547611 6.136461 19.994135 -10.20311 " stroke="#02c1c2" stroke-width="7" stroke-opacity="1" stroke-miterlimit="4"/><path fill="#d3d3d3" d="M 126.605469 87.535156 C 123.023438 99.714844 115.695312 107.183594 106.46875 112.277344 C 105.785156 112.65625 104.96875 112.707031 104.242188 112.425781 C 98.570312 110.222656 94.242188 106.511719 91.960938 100.523438 C 91.359375 98.941406 90.898438 97.195312 90.59375 95.28125 C 90.507812 94.746094 90.59375 94.191406 90.839844 93.703125 C 95.542969 84.40625 102.09375 76.871094 111.421875 72 C 112.035156 71.679688 112.757812 71.613281 113.417969 71.824219 C 114.785156 72.253906 116.0625 72.835938 117.253906 73.5625 C 121.296875 76.03125 124.355469 80.183594 126.539062 85.835938 C 126.746094 86.378906 126.769531 86.976562 126.605469 87.535156 Z M 126.605469 87.535156 " fill-opacity="1" fillRule="nonzero"/><path fill="#ffffff" d="M 117.253906 73.5625 C 106.804688 81.113281 98.410156 90.121094 91.960938 100.523438 C 91.359375 98.941406 90.898438 97.195312 90.59375 95.28125 C 90.507812 94.746094 90.59375 94.191406 90.839844 93.703125 C 95.542969 84.40625 102.09375 76.871094 111.421875 72 C 112.035156 71.679688 112.753906 71.613281 113.417969 71.824219 C 114.785156 72.253906 116.0625 72.835938 117.253906 73.5625 Z M 117.253906 73.5625 " fill-opacity="1" fillRule="nonzero"/><path fill="#8b8b8b" d="M 129.285156 61.964844 C 129.894531 60.882812 129.976562 59.582031 129.675781 58.125 C 129.648438 57.992188 129.613281 57.863281 129.566406 57.738281 C 127.542969 52.359375 122.328125 51.695312 117.617188 55.699219 C 117.421875 55.867188 117.253906 56.066406 117.113281 56.28125 C 111.957031 64.347656 113.390625 71.511719 121.46875 71.742188 C 121.550781 71.746094 121.632812 71.742188 121.710938 71.738281 C 125.097656 71.566406 127.695312 70.546875 129.464844 68.640625 C 130.398438 67.632812 130.445312 66.085938 129.574219 65.019531 C 128.867188 64.15625 128.734375 62.9375 129.285156 61.964844 Z M 129.285156 61.964844 " fill-opacity="1" fillRule="nonzero"/><path fill="#02c1c2" d="M 111.148438 54.71875 C 111.148438 54.71875 113.589844 51.933594 113.589844 51.933594 C 113.589844 51.933594 136.335938 70.4375 136.335938 70.4375 C 136.335938 70.4375 139.28125 75.167969 139.28125 75.167969 C 139.28125 75.167969 133.058594 73.941406 133.058594 73.941406 C 133.058594 73.941406 111.148438 54.71875 111.148438 54.71875 Z M 111.148438 54.71875 " fill-opacity="1" fillRule="nonzero"/><path fill="#8b8b8b" d="M 122.050781 65.289062 C 124.125 64.015625 126.113281 62.917969 127.753906 62.5625 C 128.691406 62.359375 129.683594 62.484375 130.488281 63.007812 C 131.199219 63.476562 131.714844 64.183594 132.0625 65.097656 C 132.59375 66.5 132.183594 68.082031 131.074219 69.089844 C 129.125 70.859375 126.582031 71.589844 123.675781 71.667969 C 123.128906 71.683594 122.582031 71.578125 122.085938 71.34375 C 121.007812 70.839844 120.195312 70.03125 120.324219 68.132812 C 120.402344 66.960938 121.050781 65.902344 122.050781 65.289062 Z M 122.050781 65.289062 " fill-opacity="1" fillRule="nonzero"/></svg>